<svg width="11" height="10" viewBox="0 0 11 10" fill="none" xmlns="http://www.w3.org/2000/svg">
<path d="M10.6401 5.63221L6.1958 9.81509C5.99973 9.99963 5.7383 9.99963 5.54222 9.81509C5.34615 9.63055 5.34615 9.3845 5.54222 9.19996L9.16959 5.75523H1.09789C0.836454 5.75523 0.640381 5.5707 0.640381 5.32464C0.640381 5.07859 0.836454 4.89405 1.09789 4.89405H9.16959L5.54222 1.44933C5.34615 1.26479 5.34615 1.01874 5.54222 0.803443C5.7383 0.618904 5.99973 0.618904 6.1958 0.803443L10.6401 5.01708C10.7382 5.07859 10.8035 5.20162 10.8035 5.32464C10.7709 5.41691 10.7382 5.53994 10.6401 5.63221Z" fill="#0B132A"/>
</svg>
