<svg width="41" height="41" viewBox="0 0 41 41" fill="none" xmlns="http://www.w3.org/2000/svg">
<path d="M27.8392 20.4166C27.8392 25.6146 26.9685 30.2926 25.5834 33.6487C24.8903 35.3281 24.0802 36.6478 23.2114 37.5383C22.3444 38.4268 21.4564 38.8533 20.5827 38.8533C19.7091 38.8533 18.8211 38.4268 17.9541 37.5383C17.0852 36.6478 16.2751 35.3281 15.582 33.6487C14.197 30.2926 13.3263 25.6146 13.3263 20.4166C13.3263 15.2185 14.197 10.5406 15.582 7.1845C16.2751 5.50505 17.0852 4.18538 17.9541 3.2949C18.8211 2.40636 19.7091 1.97988 20.5827 1.97988C21.4564 1.97988 22.3444 2.40636 23.2114 3.2949C24.0802 4.18538 24.8903 5.50505 25.5834 7.1845C26.9685 10.5406 27.8392 15.2185 27.8392 20.4166Z" stroke="#E30000" stroke-width="1.2"/>
<path d="M26.8669 24.0446C24.2678 28.5463 21.1749 32.1622 18.2973 34.3761C16.8573 35.484 15.4959 36.2218 14.2982 36.5586C13.1032 36.8946 12.1209 36.8199 11.3643 36.3831C10.6077 35.9463 10.0519 35.1329 9.74532 33.9299C9.4381 32.7243 9.39637 31.1764 9.63585 29.3754C10.1144 25.7764 11.6994 21.2899 14.2984 16.7882C16.8974 12.2866 19.9904 8.67071 22.8679 6.45676C24.3079 5.34886 25.6693 4.61105 26.867 4.2743C28.0621 3.93829 29.0444 4.01297 29.801 4.44978C30.5576 4.88659 31.1134 5.69995 31.4199 6.90293C31.7272 8.10855 31.7689 9.65646 31.5294 11.4575C31.0509 15.0565 29.4659 19.543 26.8669 24.0446Z" stroke="#E30000" stroke-width="1.2"/>
<path d="M24.211 26.7007C19.7094 29.2997 15.2229 30.8847 11.6238 31.3632C9.82284 31.6027 8.27492 31.561 7.06931 31.2538C5.86633 30.9472 5.05297 30.3914 4.61615 29.6348C4.17934 28.8782 4.10467 27.8959 4.44068 26.7008C4.77743 25.5031 5.51524 24.1417 6.62313 22.7018C8.83708 19.8242 12.453 16.7312 16.9546 14.1322C21.4562 11.5332 25.9428 9.94823 29.5418 9.46967C31.3428 9.23019 32.8907 9.27193 34.0963 9.57915C35.2993 9.8857 36.1127 10.4415 36.5495 11.1981C36.9863 11.9547 37.061 12.937 36.7249 14.1321C36.3882 15.3298 35.6504 16.6912 34.5425 18.1311C32.3285 21.0087 28.7127 24.1017 24.211 26.7007Z" stroke="#E30000" stroke-width="1.2"/>
<path d="M20.5827 27.6729C15.3846 27.6729 10.7067 26.8023 7.35059 25.4172C5.67114 24.7241 4.35147 23.914 3.46099 23.0451C2.57246 22.1781 2.14597 21.2901 2.14597 20.4165C2.14597 19.5429 2.57246 18.6548 3.46099 17.7878C4.35147 16.919 5.67114 16.1089 7.35059 15.4158C10.7067 14.0307 15.3846 13.1601 20.5827 13.1601C25.7807 13.1601 30.4587 14.0307 33.8148 15.4158C35.4942 16.1089 36.8139 16.919 37.7044 17.7879C38.5929 18.6548 39.0194 19.5429 39.0194 20.4165C39.0194 21.2901 38.5929 22.1781 37.7044 23.0451C36.8139 23.914 35.4942 24.7241 33.8148 25.4172C30.4587 26.8023 25.7807 27.6729 20.5827 27.6729Z" stroke="#E30000" stroke-width="1.2"/>
<path d="M16.9544 26.7006C12.4527 24.1016 8.83686 21.0086 6.62291 18.1311C5.51502 16.6911 4.7772 15.3297 4.44046 14.132C4.10445 12.9369 4.17912 11.9546 4.61593 11.198C5.05274 10.4414 5.86611 9.88561 7.06909 9.57906C8.2747 9.27184 9.82261 9.23011 11.6236 9.46958C15.2226 9.94814 19.7092 11.5331 24.2108 14.1321C28.7124 16.7311 32.3283 19.8241 34.5423 22.7017C35.6502 24.1417 36.388 25.5031 36.7247 26.7008C37.0607 27.8958 36.9861 28.8781 36.5492 29.6347C36.1124 30.3913 35.2991 30.9471 34.0961 31.2537C32.8905 31.5609 31.3426 31.6026 29.5416 31.3632C25.9425 30.8846 21.456 29.2996 16.9544 26.7006Z" stroke="#E30000" stroke-width="1.2"/>
<path d="M14.2983 24.0448C11.6993 19.5431 10.1143 15.0566 9.63579 11.4576C9.39631 9.65658 9.43805 8.10866 9.74527 6.90305C10.0518 5.70007 10.6076 4.88671 11.3642 4.44989C12.1208 4.01308 13.1031 3.93841 14.2982 4.27442C15.4959 4.61117 16.8573 5.34898 18.2973 6.45687C21.1748 8.67082 24.2678 12.2867 26.8668 16.7883C29.4658 21.29 31.0508 25.7765 31.5294 29.3755C31.7688 31.1765 31.7271 32.7244 31.4199 33.93C31.1133 35.133 30.5575 35.9464 29.8009 36.3832C29.0443 36.82 28.062 36.8947 26.867 36.5587C25.6693 36.2219 24.3079 35.4841 22.8679 34.3762C19.9903 32.1623 16.8974 28.5464 14.2983 24.0448Z" stroke="#E30000" stroke-width="1.2"/>
</svg>
